<svg width="96" height="96" viewBox="0 0 96 96" fill="none" xmlns="http://www.w3.org/2000/svg">
<g filter="url(#filter0_d_2631_15824)">
<rect x="38" y="13" width="20" height="20" rx="4" fill="#22D3EE"/>
<rect x="42" y="17" width="12" height="12" rx="2" fill="#ECFEFF"/>
<path d="M45.5 23.0003H49.25C49.692 23.0003 50.116 23.1759 50.4285 23.4885C50.7411 23.801 50.9167 24.225 50.9167 24.667C50.9167 25.109 50.7411 25.5329 50.4285 25.8455C50.116 26.1581 49.692 26.3337 49.25 26.3337H45.9167C45.8062 26.3337 45.7002 26.2898 45.622 26.2116C45.5439 26.1335 45.5 26.0275 45.5 25.917V20.0837C45.5 19.9732 45.5439 19.8672 45.622 19.789C45.7002 19.7109 45.8062 19.667 45.9167 19.667H48.8333C49.2754 19.667 49.6993 19.8426 50.0118 20.1551C50.3244 20.4677 50.5 20.8916 50.5 21.3337C50.5 21.7757 50.3244 22.1996 50.0118 22.5122C49.6993 22.8247 49.2754 23.0003 48.8333 23.0003" stroke="black" stroke-width="1.2" stroke-linecap="round" stroke-linejoin="round"/>
</g>
<defs>
<filter id="filter0_d_2631_15824" x="0" y="0" width="96" height="96" filterUnits="userSpaceOnUse" color-interpolation-filters="sRGB">
<feFlood flood-opacity="0" result="BackgroundImageFix"/>
<feColorMatrix in="SourceAlpha" type="matrix" values="0 0 0 0 0 0 0 0 0 0 0 0 0 0 0 0 0 0 127 0" result="hardAlpha"/>
<feMorphology radius="12" operator="erode" in="SourceAlpha" result="effect1_dropShadow_2631_15824"/>
<feOffset dy="25"/>
<feGaussianBlur stdDeviation="25"/>
<feColorMatrix type="matrix" values="0 0 0 0 0 0 0 0 0 0 0 0 0 0 0 0 0 0 0.25 0"/>
<feBlend mode="normal" in2="BackgroundImageFix" result="effect1_dropShadow_2631_15824"/>
<feBlend mode="normal" in="SourceGraphic" in2="effect1_dropShadow_2631_15824" result="shape"/>
</filter>
</defs>
</svg>
