<svg width="82" height="85" viewBox="0 0 82 85" fill="none" xmlns="http://www.w3.org/2000/svg">
<g filter="url(#filter0_d_2631_15790)">
<path fill-rule="evenodd" clip-rule="evenodd" d="M41.0001 22.0846C39.464 22.0846 38.2137 20.8343 38.2137 19.2982C38.2137 17.7621 39.464 16.5118 41.0001 16.5118C42.5362 16.5118 43.7855 17.7621 43.7855 19.2982C43.7855 20.8343 42.5362 22.0846 41.0001 22.0846ZM41.0001 11.2531C36.5312 11.2531 32.8945 14.8899 32.8945 19.3598C32.8945 25.0517 39.5519 30.4417 41.0001 30.4417C42.4483 30.4417 49.1058 25.0517 49.1058 19.3598C49.1058 14.8899 45.469 11.2531 41.0001 11.2531Z" fill="#A3A3A3"/>
<circle cx="41.1001" cy="19.0327" r="3.02977" fill="#262626"/>
</g>
<defs>
<filter id="filter0_d_2631_15790" x="-3.5112" y="-2.52114" width="90.0274" height="90.0274" filterUnits="userSpaceOnUse" color-interpolation-filters="sRGB">
<feFlood flood-opacity="0" result="BackgroundImageFix"/>
<feColorMatrix in="SourceAlpha" type="matrix" values="0 0 0 0 0 0 0 0 0 0 0 0 0 0 0 0 0 0 127 0" result="hardAlpha"/>
<feMorphology radius="10.2857" operator="erode" in="SourceAlpha" result="effect1_dropShadow_2631_15790"/>
<feOffset dy="21.4286"/>
<feGaussianBlur stdDeviation="21.4286"/>
<feColorMatrix type="matrix" values="0 0 0 0 0 0 0 0 0 0 0 0 0 0 0 0 0 0 0.25 0"/>
<feBlend mode="normal" in2="BackgroundImageFix" result="effect1_dropShadow_2631_15790"/>
<feBlend mode="normal" in="SourceGraphic" in2="effect1_dropShadow_2631_15790" result="shape"/>
</filter>
</defs>
</svg>
