<svg width="24" height="24" viewBox="0 0 24 24" fill="none" xmlns="http://www.w3.org/2000/svg">
<g clip-path="url(#clip0_1542_94906)">
<path d="M23.3363 12.9365C23.3363 19.0361 18.4727 23.9806 12.4728 23.9806C6.47303 23.9806 1.60938 19.0358 1.60938 12.9365C1.60938 6.83712 6.47326 1.89216 12.4728 1.89216C12.7729 1.89216 13.6062 1.91088 14.2144 1.57368C15.3593 0.93888 15.7623 0 15.7623 0C15.7623 0 15.9161 1.22352 16.2598 2.0796C16.4822 2.63352 17.0879 2.9352 17.1674 2.97384C20.8168 4.7544 23.3363 8.54616 23.3363 12.9365Z" fill="#FA6400"/>
<path d="M17.2639 3.04831C17.253 3.04279 17.2745 3.05551 17.2639 3.04831V3.04831Z" fill="black"/>
<path d="M19.0221 10.546C18.9142 10.089 18.7815 9.65512 18.6358 9.26344C18.2514 8.22976 17.8927 7.888 17.5095 7.47904C16.7719 6.69184 15.5656 6.3868 14.441 6.29248C13.8 6.23872 13.1856 6.25312 12.6999 6.28624C12.7578 5.99392 12.9299 5.71624 12.9299 5.71624C12.9299 5.71624 12.1675 5.87344 11.742 6.38896C11.7314 6.39064 11.722 6.39208 11.7139 6.39328C11.6247 5.99224 11.713 5.5 11.713 5.5C11.713 5.5 11.3487 5.78896 11.0434 6.41152C11.0278 6.4432 11.0073 6.47512 10.9839 6.5068C10.4765 6.6016 9.75116 6.76888 9.01284 7.04584C7.94892 7.44472 6.85809 8.07112 6.35352 9.03712C6.09285 9.53608 5.83832 9.96328 5.74246 11.0642C5.70657 11.4758 5.69382 11.9231 5.71012 12.3858C5.78189 14.4215 6.41963 16.7546 8.1685 17.6397C8.34653 17.7297 8.53212 17.8125 8.72903 17.8862C9.74974 18.2687 11.0779 18.4096 13.2569 18.0654C15.529 17.7892 16.7802 17.2614 17.6675 16.5777C17.8004 16.4752 17.9253 16.3694 18.0441 16.2602C19.4886 14.9327 19.4886 12.5219 19.0221 10.5458V10.546Z" fill="white"/>
<path d="M18.6374 9.26117C18.783 9.65285 18.9157 10.0868 19.0236 10.5437C19.4092 10.1756 20.1242 9.25853 19.9065 7.64813C19.698 6.10588 18.3181 5.11133 17.0904 5.13317C16.0656 5.15141 15.0759 5.78237 14.4424 6.29021C15.567 6.38453 16.7733 6.68957 17.5109 7.47677C17.8941 7.88573 18.2527 8.22749 18.6371 9.26117H18.6374Z" fill="black"/>
<path d="M5.74722 11.0603C5.84308 9.95941 6.09784 9.53221 6.35827 9.03325C6.86284 8.06725 7.95368 7.44085 9.01759 7.04197C8.2729 6.72781 7.15727 6.39493 6.16939 6.65725C4.98151 6.97285 3.91641 8.30893 4.1249 9.85117C4.33834 11.4299 5.23769 12.1211 5.71487 12.382C5.69858 11.9192 5.71133 11.4716 5.74722 11.0603V11.0603Z" fill="black"/>
<path d="M12.5522 12.7105C12.849 12.669 13.0654 12.456 13.0355 12.2347C13.0056 12.0135 12.7406 11.8677 12.4438 11.9092C12.1469 11.9507 11.9305 12.1637 11.9605 12.385C11.9904 12.6063 12.2553 12.752 12.5522 12.7105Z" fill="black"/>
<path d="M17.6684 11.5832C17.4034 10.8925 16.9702 10.0177 16.0956 9.39109C15.788 9.17053 15.2714 8.88541 14.4192 9.00469C13.8866 9.07933 13.539 9.40261 13.3482 9.74389C13.0722 10.2378 13.1348 10.826 13.4585 11.3891C13.9293 12.2082 15.0785 12.8334 15.6768 13.0091C16.0113 13.1072 16.7437 13.2896 17.3217 13.214C18.1231 13.1094 17.8823 12.141 17.6681 11.5828L17.6684 11.5832ZM15.0551 11.2885C14.7011 11.338 14.3748 11.0864 14.3264 10.7267C14.2778 10.3669 14.5252 10.0352 14.8792 9.98581C15.2331 9.93637 15.5592 10.1879 15.6078 10.5476C15.6565 10.9074 15.409 11.2391 15.0551 11.2885Z" fill="black"/>
<path d="M10.6681 9.93737C10.441 9.78857 10.0875 9.66881 9.61929 9.67193C9.10197 9.67553 8.65879 9.94577 8.45361 10.1359C8.09496 10.4685 7.87183 10.8707 7.67185 11.2775C7.46383 11.7002 7.25582 12.6784 7.2681 13.1507C7.27612 13.4611 7.31461 14.1331 7.51507 14.3673C7.58921 14.4539 7.82815 14.5252 7.94101 14.5214C8.5235 14.501 9.18343 14.0728 9.47078 13.8729C9.82494 13.6264 10.941 12.6225 11.1772 11.7045C11.3396 11.0733 11.1573 10.2578 10.6681 9.93713V9.93737ZM9.75104 12.0259C9.39711 12.0753 9.07104 11.8238 9.0224 11.464C8.97376 11.1043 9.22121 10.7726 9.57514 10.7231C9.92907 10.6737 10.2551 10.9252 10.3038 11.285C10.3524 11.6447 10.105 11.9764 9.75104 12.0259Z" fill="black"/>
<path d="M14.8824 11.0331C15.0909 11.0331 15.26 10.8613 15.26 10.6494C15.26 10.4374 15.0909 10.2656 14.8824 10.2656C14.6739 10.2656 14.5049 10.4374 14.5049 10.6494C14.5049 10.8613 14.6739 11.0331 14.8824 11.0331Z" fill="black"/>
<path d="M9.75743 11.7519C9.96594 11.7519 10.135 11.5801 10.135 11.3681C10.135 11.1562 9.96594 10.9844 9.75743 10.9844C9.54891 10.9844 9.37988 11.1562 9.37988 11.3681C9.37988 11.5801 9.54891 11.7519 9.75743 11.7519Z" fill="black"/>
<path d="M15.3665 13.3646C15.358 13.3212 15.3164 13.2929 15.2737 13.3015C15.2309 13.3101 15.2031 13.3524 15.2116 13.3958C15.2768 13.7311 14.8026 14.1691 14.236 14.297C13.1189 14.5493 12.7704 13.4925 12.6902 13.1625C12.6895 13.1599 12.6878 13.158 12.6871 13.1556C12.6854 13.1505 12.6831 13.146 12.6805 13.1414C12.6779 13.1369 12.675 13.1325 12.6715 13.1287C12.6682 13.1251 12.6649 13.1222 12.6611 13.1191C12.6569 13.1157 12.6526 13.1129 12.6477 13.1105C12.6434 13.1083 12.6389 13.1069 12.6342 13.1054C12.629 13.104 12.624 13.103 12.6184 13.1028C12.6158 13.1028 12.6137 13.1013 12.6111 13.1016C12.6082 13.1016 12.6056 13.103 12.6028 13.1035C12.6 13.104 12.5974 13.1033 12.5945 13.104C12.5919 13.1047 12.5903 13.1064 12.5877 13.1071C12.5825 13.109 12.578 13.1112 12.5733 13.1141C12.569 13.1167 12.565 13.1193 12.5612 13.1229C12.5575 13.1263 12.5544 13.1301 12.5513 13.1342C12.5483 13.1383 12.5457 13.1424 12.5433 13.1472C12.5412 13.1518 12.5395 13.1563 12.5383 13.1611C12.5369 13.1664 12.536 13.1714 12.5357 13.1769C12.5357 13.1796 12.5343 13.1817 12.5346 13.1844C12.5447 13.524 12.4895 14.6371 11.3469 14.7007C10.7675 14.7329 10.1947 14.441 10.1685 14.1005C10.1652 14.0563 10.1269 14.0234 10.0835 14.0268C10.04 14.0301 10.0075 14.069 10.011 14.1132C10.0424 14.5212 10.6247 14.8639 11.2589 14.8639C11.291 14.8639 11.3233 14.8629 11.3557 14.8613C11.495 14.8536 11.7689 14.8166 12.0328 14.6601C12.0298 14.7211 12.0366 14.7768 12.0418 14.8145C12.0843 15.1291 12.3587 15.3264 12.7301 15.3264C12.7808 15.3264 12.833 15.3228 12.8871 15.3151C13.3364 15.2525 13.6164 14.9587 13.5683 14.6011C13.5635 14.5661 13.5546 14.5029 13.53 14.4355C13.67 14.477 13.8063 14.4919 13.9264 14.4919C14.0714 14.4919 14.1932 14.4715 14.2707 14.454C14.9264 14.3059 15.4489 13.7868 15.367 13.3649L15.3665 13.3646ZM12.1981 14.7921C12.1889 14.7247 12.1719 14.5989 12.2427 14.525C12.2992 14.466 12.3511 14.399 12.3986 14.3289C12.4458 14.2649 12.489 14.1929 12.5272 14.1125C12.6002 13.9737 12.6557 13.8401 12.6918 13.7438C12.7402 13.8074 12.8051 13.8897 12.8798 13.9757C12.9489 14.0678 13.0231 14.1434 13.0998 14.2065C13.1621 14.2649 13.2259 14.3189 13.2887 14.3616C13.3737 14.4194 13.399 14.5315 13.4112 14.6227C13.453 14.9323 13.1671 15.1135 12.8651 15.1557C12.5629 15.198 12.2397 15.1017 12.1979 14.7921H12.1981Z" fill="black"/>
<path d="M19.9475 17.0671C18.3847 16.4736 17.904 16.5857 17.6697 16.577C16.7824 17.261 15.5313 17.7888 13.2592 18.0648C11.0799 18.4089 9.75176 18.2681 8.73129 17.8855C7.64613 17.7828 6.57631 17.6916 5.96053 17.4043C5.1391 17.0213 4.11768 16.224 4.11768 16.224C4.11768 16.224 3.97035 14.6503 4.00718 14.3131C4.03457 14.0618 4.24683 13.5074 3.98876 13.2641C3.53496 12.8357 2.89887 13.4045 2.73572 13.6761C2.5329 14.0133 2.62522 14.7816 2.62522 14.7816C2.62522 14.7816 2.14993 14.3661 1.70439 14.3179C1.70156 14.3177 1.69872 14.3169 1.69589 14.3167C1.5691 14.3042 1.44514 14.322 1.33535 14.3882C0.787806 14.7182 1.07728 15.2501 1.07728 15.2501C1.07728 15.2501 0.671875 15.3062 0.671875 15.9057C0.671875 16.1681 0.911528 16.3178 0.911528 16.3178C0.911528 16.3178 0.579792 16.8612 0.966778 17.4045C1.05626 17.5301 1.33629 17.6767 1.51951 17.6669C1.86967 17.6481 2.21982 17.3484 2.21982 17.3484C2.21982 17.3484 2.44247 17.5869 2.78011 17.9239C3.38385 18.5268 4.37481 19.4215 5.07606 19.8775C5.93621 20.4369 7.3066 21.1512 7.51674 21.2669C7.46172 21.3703 7.34414 21.8846 7.29149 22.6596C8.72633 23.4547 10.3572 23.9299 12.0914 23.9921C12.2203 23.9849 12.3483 23.9805 12.4751 23.9805C12.6153 23.9805 12.7601 23.9846 12.9067 23.9909C15.5183 23.8884 17.8929 22.8489 19.7149 21.1929C19.6217 20.9066 19.5421 20.7019 19.5421 20.7019L19.9147 21.0069C20.7361 20.2224 21.4371 19.3094 21.987 18.2995C21.4197 17.8353 20.7878 17.3865 19.9475 17.0673V17.0671Z" fill="black"/>
<path d="M2.11852 15.6981C1.81818 15.6981 1.5195 15.4713 1.5051 15.4603C1.494 15.4517 1.49188 15.4356 1.50014 15.4243C1.5084 15.413 1.52422 15.4106 1.53556 15.4193C1.53933 15.4221 1.92467 15.7145 2.23917 15.6317C2.37328 15.5964 2.47717 15.4968 2.54753 15.3355C2.5532 15.3225 2.56807 15.3168 2.58082 15.3225C2.59357 15.3283 2.59924 15.3434 2.59357 15.3564C2.5166 15.5328 2.40138 15.642 2.25145 15.6813C2.20777 15.6929 2.1629 15.6979 2.11828 15.6979L2.11852 15.6981Z" fill="white"/>
<path d="M2.07434 17.1509C2.07057 17.1509 2.06702 17.1502 2.06348 17.1483C2.05097 17.142 2.04554 17.1269 2.05168 17.114C2.12345 16.9623 2.13715 16.826 2.09252 16.7084C2.02523 16.5317 1.84555 16.4564 1.8439 16.4556C1.83091 16.4504 1.82477 16.4355 1.82997 16.4223C1.83516 16.4091 1.84957 16.4028 1.86279 16.4081C1.87105 16.4115 2.06395 16.4919 2.13951 16.6894C2.1898 16.8207 2.1754 16.9709 2.09725 17.1363C2.093 17.1454 2.08379 17.1507 2.07458 17.1507L2.07434 17.1509Z" fill="white"/>
<path d="M1.84759 16.4606C1.57134 16.4606 1.31611 16.4066 1.29627 16.4023C1.28258 16.3994 1.27408 16.3858 1.27691 16.3718C1.27974 16.3579 1.29297 16.3493 1.3069 16.3522C1.31587 16.3541 2.20412 16.5418 2.44944 16.2209C2.45794 16.2096 2.47376 16.2077 2.48486 16.2163C2.49595 16.225 2.49784 16.241 2.48934 16.2523C2.36373 16.4165 2.0974 16.4604 1.84806 16.4604L1.84759 16.4606Z" fill="white"/>
<path d="M15.911 20.8125C15.0646 20.7304 11.3777 20.4753 10.5117 22.5736C10.4087 22.8232 10.3388 23.3284 10.3018 23.7758C11.0056 23.9215 11.7342 23.9983 12.4806 23.9983C14.378 23.9983 16.1616 23.5029 17.7135 22.6334C17.2982 21.6448 16.7485 20.8939 15.9113 20.8125H15.911Z" fill="white"/>
<path d="M13.4093 14.6211C13.397 14.5299 13.3718 14.4178 13.2868 14.3599C13.2237 14.3172 13.16 14.2632 13.0979 14.2049C13.0211 14.1415 12.947 14.0662 12.8778 13.974C12.8032 13.8881 12.7383 13.8058 12.6899 13.7422C12.6538 13.8384 12.5983 13.9723 12.5253 14.1108C12.4871 14.1912 12.4439 14.263 12.3966 14.3273C12.3492 14.3974 12.2972 14.4643 12.2408 14.5234C12.17 14.5975 12.187 14.7231 12.1962 14.7905C12.238 15.1001 12.5612 15.1961 12.8634 15.1541C13.1654 15.1119 13.4513 14.9307 13.4095 14.6211H13.4093Z" fill="#FF7C7C"/>
</g>
<defs>
<clipPath id="clip0_1542_94906">
<rect width="22.6667" height="24" fill="white" transform="translate(0.671875)"/>
</clipPath>
</defs>
</svg>
